<svg xmlns="http://www.w3.org/2000/svg" xmlns:xlink="http://www.w3.org/1999/xlink" viewBox="0 0 593.33 268.1"><defs><style>.cls-1{fill:url(#linear-gradient);}.cls-2{fill:url(#linear-gradient-2);}.cls-3,.cls-7{fill:#19cbdd;}.cls-4,.cls-7{font-size:135.41px;font-family:Rosmatika-Regular, Rosmatika;}.cls-4{fill:#148eff;letter-spacing:-0.01em;}.cls-5{letter-spacing:-0.01em;}.cls-6{letter-spacing:0em;}.cls-8{letter-spacing:-0.02em;}.cls-9{letter-spacing:0.02em;}</style><linearGradient id="linear-gradient" x1="-1230.46" y1="498.12" x2="-1230.07" y2="497.8" gradientTransform="matrix(189.83, 0, 0, -255.34, 233642.16, 127270.09)" gradientUnits="userSpaceOnUse"><stop offset="0" stop-color="#4285eb"/><stop offset="1" stop-color="#2ec7ff"/></linearGradient><linearGradient id="linear-gradient-2" x1="-1230.29" y1="498.37" x2="-1230.42" y2="497.45" gradientTransform="matrix(189.83, 0, 0, -255.34, 233642.16, 127270.09)" gradientUnits="userSpaceOnUse"><stop offset="0" stop-color="#29cdff"/><stop offset="0.38" stop-color="#148eff"/><stop offset="1" stop-color="#0a60ff"/></linearGradient></defs><g id="Layer_2" data-name="Layer 2"><g id="Layer_1-2" data-name="Layer 1"><path class="cls-1" d="M98.94,22.8l-95.11,95a13,13,0,0,0,0,18.47l95.11,95a13.05,13.05,0,0,0,18.48,0l39.88-39.84a11.72,11.72,0,0,0-16.58-16.57l-30.23,30.21a3.11,3.11,0,0,1-4.48,0L30.06,129.23a3.1,3.1,0,0,1,0-4.47l76-75.89a3.11,3.11,0,0,1,4.48,0l30.23,30.21A11.72,11.72,0,0,0,157.3,62.51L117.43,22.67A13.19,13.19,0,0,0,98.94,22.8Z"/><path class="cls-2" d="M98.94,22.8l-95.11,95a13,13,0,0,0,0,18.47l95.11,95a13.05,13.05,0,0,0,18.48,0l39.88-39.84a11.72,11.72,0,0,0-16.58-16.57l-30.23,30.21a3.11,3.11,0,0,1-4.48,0L30.06,129.23a3.1,3.1,0,0,1,0-4.47l76-75.89c3.17-2.73,8.34-8.26,15.93-9.56q8.48-1.44,18.51,6.35l-23-23A13.19,13.19,0,0,0,98.94,22.8Z"/><path class="cls-3" d="M140.85,90.13c-21.9.7-28.41,16.34-29.9,24.81,1.94-3.14,8.07-10,17.08-10,10.51,0,18.51,11.73,23.39,15.39a37,37,0,0,0,33.49,5.56c12.48-3.8,18.26-17,19.53-23.32-6,8.2-15.19,13.13-26.51,7.32C170.13,105.86,164.3,89.38,140.85,90.13Z"/><path class="cls-3" d="M109.87,127.35C88,128,81.46,143.69,80,152.16c1.94-3.14,8.07-10,17.08-10,10.51,0,18.51,11.73,23.39,15.39a37,37,0,0,0,33.49,5.56c12.48-3.8,18.26-17,19.53-23.33-6,8.21-15.19,13.13-26.51,7.33C139.15,143.08,133.32,126.6,109.87,127.35Z"/><text class="cls-4" transform="translate(220.71 115.1)">A<tspan class="cls-5" x="88.83" y="0">n</tspan><tspan class="cls-6" x="181.32" y="0">t</tspan></text><text class="cls-7" transform="translate(227.32 223.42)">W<tspan class="cls-8" x="136.49" y="0">i</tspan><tspan class="cls-9" x="182.13" y="0">n</tspan><tspan x="278" y="0">d</tspan></text></g></g></svg>