<svg xmlns="http://www.w3.org/2000/svg" viewBox="0 0 468.1 191.74"><defs><style>.cls-1,.cls-2,.cls-5{fill:#61dafb;}.cls-2,.cls-5{font-size:94.93px;font-family:Rosmatika-Regular, Rosmatika;}.cls-2{letter-spacing:-0.01em;}.cls-3{letter-spacing:-0.01em;}.cls-4{letter-spacing:0em;}.cls-6{letter-spacing:-0.02em;}.cls-7{letter-spacing:0.01em;}</style></defs><g id="Layer_2" data-name="Layer 2"><g id="Layer_1-2" data-name="Layer 1"><path class="cls-1" d="M189.45,95.89c0-12.55-15.71-24.44-39.81-31.82,5.56-24.56,3.09-44.1-7.8-50.36a17,17,0,0,0-8.65-2.16v8.61a8.92,8.92,0,0,1,4.4,1c5.25,3,7.53,14.48,5.75,29.23-.42,3.63-1.12,7.45-2,11.35a188.41,188.41,0,0,0-24.53-4.21,188.16,188.16,0,0,0-16.06-19.3c12.59-11.71,24.4-18.12,32.44-18.12V11.51c-10.62,0-24.52,7.57-38.58,20.7-14.06-13-28-20.54-38.58-20.54v8.61c8,0,19.85,6.37,32.44,18a183.2,183.2,0,0,0-16,19.27A181.12,181.12,0,0,0,48,61.79c-.89-3.86-1.54-7.61-2-11.2-1.81-14.75.43-26.22,5.64-29.27a8.64,8.64,0,0,1,4.44-1V11.71a17.21,17.21,0,0,0-8.73,2.16c-10.85,6.25-13.28,25.76-7.68,50.24C15.64,71.52,0,83.38,0,95.89s15.72,24.44,39.81,31.82c-5.56,24.56-3.09,44.1,7.8,50.36a17.06,17.06,0,0,0,8.69,2.16c10.62,0,24.52-7.57,38.58-20.7,14.06,13.05,28,20.54,38.58,20.54a17.21,17.21,0,0,0,8.73-2.16c10.85-6.25,13.28-25.76,7.68-50.24,23.94-7.37,39.58-19.27,39.58-31.78ZM139.17,70.13c-1.42,5-3.2,10.12-5.21,15.26-1.58-3.09-3.24-6.18-5.06-9.27s-3.67-6.1-5.56-9c5.48.81,10.78,1.82,15.83,3Zm-17.68,41.13c-3,5.21-6.1,10.16-9.31,14.75-5.75.5-11.58.77-17.45.77s-11.67-.27-17.38-.73q-4.81-6.9-9.35-14.67c-2.93-5.06-5.6-10.2-8-15.37,2.4-5.18,5.1-10.35,8-15.41,3-5.22,6.1-10.16,9.3-14.75q8.64-.76,17.46-.78c5.83,0,11.66.27,17.37.74,3.21,4.59,6.34,9.5,9.35,14.67s5.6,10.2,8,15.37c-2.43,5.18-5.1,10.35-8,15.41Zm12.47-5c2.09,5.17,3.86,10.35,5.33,15.37-5.06,1.23-10.39,2.28-15.91,3.09,1.89-3,3.78-6,5.56-9.15s3.44-6.22,5-9.31ZM94.8,147.44a158.9,158.9,0,0,1-10.73-12.35c3.47.15,7,.27,10.62.27s7.22-.08,10.73-.27A148.31,148.31,0,0,1,94.8,147.44ZM66.07,124.7c-5.48-.81-10.77-1.82-15.83-3,1.43-5,3.21-10.12,5.21-15.26,1.59,3.09,3.25,6.18,5.06,9.27S64.18,121.76,66.07,124.7ZM94.61,44.34a161.11,161.11,0,0,1,10.74,12.35c-3.48-.15-7-.27-10.62-.27s-7.23.08-10.74.27A152.17,152.17,0,0,1,94.61,44.34ZM66,67.08c-1.89,3-3.78,6-5.56,9.15s-3.43,6.18-5,9.27c-2.08-5.17-3.86-10.35-5.33-15.37,5.06-1.19,10.39-2.24,15.91-3ZM31.09,115.43C17.42,109.6,8.57,102,8.57,95.89s8.85-13.75,22.52-19.54c3.32-1.43,7-2.7,10.69-3.9A185.43,185.43,0,0,0,50.47,96a182.72,182.72,0,0,0-8.57,23.4c-3.82-1.2-7.45-2.51-10.81-3.94Zm20.77,55.18c-5.25-3-7.53-14.48-5.75-29.23.42-3.63,1.12-7.45,2-11.35a188.25,188.25,0,0,0,24.52,4.21,188.16,188.16,0,0,0,16.06,19.3c-12.59,11.71-24.4,18.12-32.43,18.12a9.21,9.21,0,0,1-4.37-1Zm91.6-29.42c1.82,14.75-.42,26.22-5.64,29.27a8.64,8.64,0,0,1-4.44,1c-8,0-19.85-6.37-32.44-18a182,182,0,0,0,16-19.27A181.12,181.12,0,0,0,141.45,130,106.5,106.5,0,0,1,143.46,141.19Zm14.87-25.76c-3.32,1.43-7,2.7-10.7,3.9a185.43,185.43,0,0,0-8.69-23.52,184.36,184.36,0,0,0,8.58-23.4c3.82,1.2,7.45,2.51,10.85,3.94,13.67,5.83,22.51,13.48,22.51,19.54s-8.88,13.75-22.55,19.54Z"/><circle class="cls-1" cx="94.69" cy="95.89" r="17.65"/><text class="cls-2" transform="translate(202 80.69)">A<tspan class="cls-3" x="62.27" y="0">n</tspan><tspan class="cls-4" x="127.11" y="0">t</tspan></text><text class="cls-5" transform="translate(211.52 160.42)">W<tspan class="cls-6" x="95.68" y="0">i</tspan><tspan class="cls-7" x="127.67" y="0">n</tspan><tspan x="194.88" y="0">d</tspan></text></g></g></svg>