<svg xmlns="http://www.w3.org/2000/svg" xmlns:xlink="http://www.w3.org/1999/xlink" viewBox="0 0 204.44 216.2"><defs><style>.cls-1{fill:url(#linear-gradient);}.cls-2{fill:url(#linear-gradient-2);}.cls-3{fill:#19cbdd;}</style><linearGradient id="linear-gradient" x1="-1230.46" y1="479.17" x2="-1230.07" y2="478.85" gradientTransform="matrix(189.83, 0, 0, -255.34, 233642.16, 122412.32)" gradientUnits="userSpaceOnUse"><stop offset="0" stop-color="#4285eb"/><stop offset="1" stop-color="#2ec7ff"/></linearGradient><linearGradient id="linear-gradient-2" x1="-1230.29" y1="479.42" x2="-1230.42" y2="478.5" gradientTransform="matrix(189.83, 0, 0, -255.34, 233642.16, 122412.32)" gradientUnits="userSpaceOnUse"><stop offset="0" stop-color="#29cdff"/><stop offset="0.38" stop-color="#148eff"/><stop offset="1" stop-color="#0a60ff"/></linearGradient></defs><g id="Layer_2" data-name="Layer 2"><g id="Layer_1-2" data-name="Layer 1"><path class="cls-1" d="M98.94,3.85l-95.11,95a13,13,0,0,0,0,18.46l95.11,95a13.05,13.05,0,0,0,18.48,0l39.88-39.84A11.72,11.72,0,0,0,140.72,156l-30.23,30.2a3.09,3.09,0,0,1-4.48,0L30.06,110.28a3.1,3.1,0,0,1,0-4.47l76-75.89a3.11,3.11,0,0,1,4.48,0l30.23,30.21A11.72,11.72,0,0,0,157.3,43.56L117.43,3.72A13.19,13.19,0,0,0,98.94,3.85Z"/><path class="cls-2" d="M98.94,3.85l-95.11,95a13,13,0,0,0,0,18.46l95.11,95a13.05,13.05,0,0,0,18.48,0l39.88-39.84A11.72,11.72,0,0,0,140.72,156l-30.23,30.2a3.09,3.09,0,0,1-4.48,0L30.06,110.28a3.1,3.1,0,0,1,0-4.47l76-75.89c3.17-2.73,8.34-8.26,15.93-9.56q8.48-1.44,18.51,6.35l-23-23A13.19,13.19,0,0,0,98.94,3.85Z"/><path class="cls-3" d="M140.85,71.18C119,71.88,112.44,87.52,111,96,112.89,92.85,119,86,128,86c10.51,0,18.51,11.73,23.39,15.39a37,37,0,0,0,33.49,5.56c12.48-3.8,18.26-17,19.53-23.32-6,8.2-15.19,13.13-26.51,7.32C170.13,86.91,164.3,70.43,140.85,71.18Z"/><path class="cls-3" d="M109.87,108.4c-21.9.69-28.41,16.34-29.9,24.81,1.94-3.14,8.07-10,17.08-10,10.51,0,18.51,11.73,23.39,15.39a37,37,0,0,0,33.49,5.56c12.48-3.8,18.26-17,19.53-23.33-6,8.21-15.19,13.13-26.51,7.33C139.15,124.13,133.32,107.65,109.87,108.4Z"/></g></g></svg>