<svg xmlns="http://www.w3.org/2000/svg" viewBox="0 0 189.45 168.72"><defs><style>.cls-1{fill:#fff;}</style></defs><g id="Layer_2" data-name="Layer 2"><g id="Layer_1-2" data-name="Layer 1"><path class="cls-1" d="M189.45,84.38c0-12.55-15.71-24.45-39.81-31.82,5.56-24.56,3.09-44.1-7.8-50.36A16.92,16.92,0,0,0,133.19,0V8.65a9,9,0,0,1,4.4,1c5.25,3,7.53,14.49,5.75,29.24-.42,3.63-1.12,7.45-2,11.35A188.41,188.41,0,0,0,116.85,46a189.41,189.41,0,0,0-16.06-19.31C113.38,15,125.19,8.61,133.23,8.61V0c-10.62,0-24.52,7.57-38.58,20.7C80.59,7.65,66.69.15,56.07.15V8.77c8,0,19.85,6.37,32.44,18A183.2,183.2,0,0,0,72.56,46,181.12,181.12,0,0,0,48,50.28c-.89-3.86-1.54-7.61-2-11.2-1.81-14.75.43-26.22,5.64-29.27a8.54,8.54,0,0,1,4.44-1V.19a17.22,17.22,0,0,0-8.73,2.17C36.49,8.61,34.06,28.11,39.66,52.6,15.64,60,0,71.87,0,84.38s15.72,24.44,39.81,31.82c-5.56,24.56-3.09,44.1,7.8,50.35a17,17,0,0,0,8.69,2.17c10.62,0,24.52-7.57,38.58-20.7,14.06,13,28,20.54,38.58,20.54a17.21,17.21,0,0,0,8.73-2.16c10.85-6.26,13.28-25.76,7.68-50.24,23.94-7.38,39.58-19.27,39.58-31.78ZM139.17,58.62c-1.42,5-3.2,10.12-5.21,15.25-1.58-3.09-3.24-6.18-5.06-9.26s-3.67-6.11-5.56-9c5.48.81,10.78,1.81,15.83,3ZM121.49,99.75c-3,5.21-6.1,10.15-9.31,14.75-5.75.5-11.58.77-17.45.77s-11.67-.27-17.38-.73q-4.81-6.9-9.35-14.68-4.4-7.59-8-15.37c2.4-5.17,5.1-10.35,8-15.41s6.1-10.15,9.3-14.75c5.76-.5,11.59-.77,17.46-.77s11.66.27,17.37.73q4.82,6.9,9.35,14.68,4.39,7.59,8,15.37c-2.43,5.17-5.1,10.35-8,15.41Zm12.47-5c2.09,5.17,3.86,10.35,5.33,15.37-5.06,1.23-10.39,2.27-15.91,3.08,1.89-3,3.78-6,5.56-9.15s3.44-6.21,5-9.3ZM94.8,135.93a159.11,159.11,0,0,1-10.73-12.36c3.47.16,7,.27,10.62.27s7.22-.07,10.73-.27A148.5,148.5,0,0,1,94.8,135.93ZM66.07,113.18c-5.48-.81-10.77-1.81-15.83-3.05,1.43-5,3.21-10.11,5.21-15.25,1.59,3.09,3.25,6.18,5.06,9.27S64.18,110.25,66.07,113.18ZM94.61,32.82a161.33,161.33,0,0,1,10.74,12.36c-3.48-.15-7-.27-10.62-.27S87.5,45,84,45.18A152.37,152.37,0,0,1,94.61,32.82ZM66,55.57c-1.89,3-3.78,6-5.56,9.15S57,70.9,55.45,74c-2.08-5.18-3.86-10.35-5.33-15.37,5.06-1.2,10.39-2.24,15.91-3ZM31.09,103.92C17.42,98.09,8.57,90.44,8.57,84.38s8.85-13.75,22.52-19.54c3.32-1.43,7-2.71,10.69-3.9a185.31,185.31,0,0,0,8.69,23.51,183.39,183.39,0,0,0-8.57,23.41c-3.82-1.2-7.45-2.51-10.81-3.94ZM51.86,159.1c-5.25-3-7.53-14.48-5.75-29.23.42-3.63,1.12-7.46,2-11.36a184.94,184.94,0,0,0,24.52,4.21A188.32,188.32,0,0,0,88.66,142c-12.59,11.7-24.4,18.11-32.43,18.11a9.22,9.22,0,0,1-4.37-1Zm91.6-29.43c1.82,14.76-.42,26.22-5.64,29.28a8.64,8.64,0,0,1-4.44,1c-8,0-19.85-6.37-32.44-18a180,180,0,0,0,16-19.27,179.61,179.61,0,0,0,24.56-4.24A106.33,106.33,0,0,1,143.46,129.67Zm14.87-25.75c-3.32,1.43-7,2.7-10.7,3.9a185.43,185.43,0,0,0-8.69-23.52,184.36,184.36,0,0,0,8.58-23.4c3.82,1.2,7.45,2.51,10.85,3.94,13.67,5.83,22.51,13.47,22.51,19.54S172,98.12,158.33,103.92Z"/><circle class="cls-1" cx="94.69" cy="84.38" r="17.65"/></g></g></svg>